Coordinates
version=1
nRows=16
nColumns=40
inDegrees=yes

Units are S.I. units (second, meters, Newtons, ...)
Angles are in degrees.

endheader
time	pelvis_tilt	pelvis_list	pelvis_rotation	pelvis_tx	pelvis_ty	pelvis_tz	hip_flexion_r	hip_adduction_r	hip_rotation_r	knee_angle_r	knee_angle_r_beta	ankle_angle_r	subtalar_angle_r	mtp_angle_r	hip_flexion_l	hip_adduction_l	hip_rotation_l	knee_angle_l	knee_angle_l_beta	ankle_angle_l	subtalar_angle_l	mtp_angle_l	lumbar_extension	lumbar_bending	lumbar_rotation	arm_flex_r	arm_add_r	arm_rot_r	elbow_flex_r	pro_sup_r	wrist_flex_r	wrist_dev_r	arm_flex_l	arm_add_l	arm_rot_l	elbow_flex_l	pro_sup_l	wrist_flex_l	wrist_dev_l
      0.00000000	     -4.28304511	     -0.88215104	     -1.98741281	     -1.04322078	      0.88049218	     -1.39543038	     -7.12618151	      2.78452601	    -11.53397082	    -18.32463982	     -0.31982530	     12.49011109	      7.68184493	     -6.18514705	     36.21262232	      8.75851047	     14.61785052	    -26.10203482	     -0.45556645	      5.53792343	     10.40689304	      0.79501362	     -4.24267450	     -0.75719455	      3.93847628	     -7.20531342	    -13.58554862	     -5.14849214	     69.10464900	     89.95437384	      0.00000000	      0.00000000	    -17.11581827	      5.91791222	     21.12240557	     32.87199396	     89.95437384	      0.00000000	      0.00000000
      0.01000000	     -4.37913550	     -1.03349605	     -2.30540500	     -1.03058195	      0.87890601	     -1.39730364	     -7.61435204	      2.61880123	    -11.05047118	    -18.84465855	     -0.32890134	     12.12678378	      7.72665797	     -6.30762057	     36.55130068	      8.94422177	     15.40581603	    -25.03923357	     -0.43701707	      5.50359429	      9.84898725	      0.82000041	     -4.14375226	     -0.63116284	      4.21988782	     -7.14122969	    -13.69817132	     -5.13326937	     69.60182102	     89.95437384	      0.00000000	      0.00000000	    -17.06849621	      5.85418936	     21.15663414	     32.37606743	     89.95437384	      0.00000000	      0.00000000
      0.02000000	     -4.35321037	     -0.92724692	     -2.83949297	     -1.01745877	      0.87755305	     -1.39892976	     -8.03675448	      2.10877049	    -10.35401198	    -19.75304754	     -0.34475572	     11.62622851	      7.61048133	     -6.50676926	     36.62504005	      9.07316433	     16.71244842	    -24.44380269	     -0.42662484	      5.48522827	      8.92755243	      0.76709575	     -4.11827465	     -0.82706666	      4.63859393	     -7.05748254	    -13.67599001	     -5.19782291	     69.92623545	     89.95437384	      0.00000000	      0.00000000	    -16.97521725	      5.77691241	     21.37495795	     31.77077075	     89.95437384	      0.00000000	      0.00000000
      0.03000000	     -4.44861673	     -1.01286793	     -2.93195113	     -1.00377394	      0.87583242	     -1.40095025	     -8.53261325	      1.89862062	    -10.11520509	    -20.36988709	     -0.35552160	     11.26938008	      7.39565989	     -6.40633352	     37.02192266	      8.96087559	     16.61972781	    -24.50295217	     -0.42765719	      5.37363056	      8.66536928	      0.75752255	     -3.88022982	     -0.83436674	      4.56826709	     -7.05118088	    -13.59003438	     -5.18555440	     70.11060391	     89.95437384	      0.00000000	      0.00000000	    -17.24097911	      5.77599132	     21.32763850	     31.75954021	     89.95437384	      0.00000000	      0.00000000
      0.04000000	     -4.16516436	     -0.98115395	     -3.78504944	     -0.98989169	      0.87498214	     -1.40205442	     -9.14390255	      1.38838708	     -9.07503748	    -21.41050273	     -0.37368377	     10.33759503	      7.53358375	     -6.63017040	     36.57647067	      9.24712372	     17.69459156	    -24.62487676	     -0.42978518	      5.82015802	      8.43256407	      0.70171371	     -4.09048070	     -0.96552166	      5.38906919	     -7.18133828	    -13.59672956	     -5.36274714	     70.42125191	     89.95437384	      0.00000000	      0.00000000	    -16.89957291	      5.69567135	     21.73386417	     30.94322406	     89.95437384	      0.00000000	      0.00000000
      0.05000000	     -3.96252327	     -1.01749537	     -4.22918584	     -0.97553954	      0.87390972	     -1.40358975	     -9.73436476	      1.00612876	     -8.49202770	    -22.38965113	     -0.39077313	      9.38757105	      7.29070853	     -6.65793086	     36.33267462	      9.25015216	     17.72779532	    -25.21896306	     -0.44015394	      5.97006331	      8.56352281	      0.71764677	     -4.11888018	     -1.05110101	      5.65819885	     -7.25028166	    -13.54204372	     -5.33315808	     70.40419075	     89.95437384	      0.00000000	      0.00000000	    -16.88251942	      5.67110769	     21.82888585	     30.59316534	     89.95437384	      0.00000000	      0.00000000
      0.06000000	     -3.73917178	     -1.03386599	     -4.66775889	     -0.96072169	      0.87291026	     -1.40513316	    -10.36147686	      0.61547841	     -7.78609133	    -23.32966753	     -0.40717951	      8.22875675	      7.06512821	     -6.63147631	     35.92297714	      9.12652844	     17.50059319	    -25.96450907	     -0.45316617	      6.19207895	      9.12183332	      0.78092615	     -4.11768391	     -1.17276719	      5.93279302	     -7.40397027	    -13.48243121	     -5.35655078	     70.31021896	     89.95437384	      0.00000000	      0.00000000	    -16.85876265	      5.68634880	     21.99897101	     30.27297485	     89.95437384	      0.00000000	      0.00000000
      0.07000000	     -3.64865415	     -0.99012951	     -4.90766097	     -0.94576157	      0.87169862	     -1.40681781	    -10.74101604	      0.21520293	     -7.15870654	    -24.44860629	     -0.42670868	      7.18358955	      6.77237229	     -6.45358834	     35.65606320	      8.81631518	     16.83567380	    -26.94144575	     -0.47021693	      6.04348262	      9.23077467	      0.79329244	     -3.93888149	     -1.38345567	      5.92356238	     -7.57746955	    -13.34146178	     -5.35430391	     70.04877492	     89.95437384	      0.00000000	      0.00000000	    -16.98060063	      5.76020865	     22.00033816	     30.20238354	     89.95437384	      0.00000000	      0.00000000
      0.08000000	     -3.46619093	     -1.03734791	     -5.35134493	     -0.93050199	      0.87082086	     -1.40830909	    -11.10431528	     -0.15103261	     -6.48108983	    -25.63999856	     -0.44750240	      5.23462442	      6.32278744	     -6.25222971	     35.16535239	      8.65871587	     16.45351644	    -27.99105062	     -0.48853599	      5.47364233	     10.80810580	      1.07935623	     -3.83756365	     -1.48684390	      6.17598441	     -7.85208581	    -13.27927265	     -5.29637287	     69.75534560	     89.95437384	      0.00000000	      0.00000000	    -16.85968948	      5.74813191	     22.26209595	     29.82832645	     89.95437384	      0.00000000	      0.00000000
      0.09000000	     -3.36711312	     -0.96853453	     -5.40338478	     -0.91529262	      0.86979513	     -1.41032964	    -11.25781381	     -0.50528219	     -5.84953085	    -27.10857552	     -0.47313390	      3.86100574	      5.71689216	     -5.98423329	     34.90205970	      8.26776167	     15.79734192	    -29.18667924	     -0.50940365	      3.93537725	     11.31657901	      1.32640429	     -3.65715952	     -1.73520722	      5.90018326	     -8.02661935	    -13.06228287	     -5.28862860	     69.22393104	     89.95437384	      0.00000000	      0.00000000	    -16.96099342	      5.85135491	     22.24939875	     29.86750341	     89.95437384	      0.00000000	      0.00000000
      0.10000000	     -3.67941164	     -0.82489933	     -5.44141830	     -0.90060333	      0.86874809	     -1.41276132	    -10.60728877	     -0.80807518	     -5.08674316	    -28.93993934	     -0.50509723	      1.10284651	      3.48353378	     -5.62787229	     35.16183919	      7.56552550	     14.21107104	    -30.38153984	     -0.53025790	      3.07782349	     14.83115256	      2.05245973	     -3.01659949	     -2.00298123	      5.56167444	     -8.13842041	    -12.91984523	     -5.12976821	     68.43515258	     89.95437384	      0.00000000	      0.00000000	    -16.75710143	      5.77955230	     22.95970944	     29.43921661	     89.95437384	      0.00000000	      0.00000000
      0.11000000	     -3.80221161	     -0.60625973	     -5.35086729	     -0.88569273	      0.86809707	     -1.41528215	     -9.89210093	     -1.31492027	     -4.92954645	    -31.18358618	     -0.54425625	     -1.71877049	      2.19550759	     -5.19500192	     35.37775667	      7.11968392	     13.44455111	    -31.96612099	     -0.55791406	      2.05392090	     15.15220856	      2.47103822	     -2.59173882	     -2.38241374	      5.06518279	     -8.23069888	    -12.70356603	     -5.02576721	     67.50939327	     89.95437384	      0.00000000	      0.00000000	    -16.59473132	      5.85343375	     23.12411866	     29.17083449	     89.95437384	      0.00000000	      0.00000000
      0.12000000	     -3.68898063	     -0.43863579	     -5.27596486	     -0.87079929	      0.86814777	     -1.41743584	     -9.11898081	     -1.84414828	     -5.19461143	    -33.77308598	     -0.58945155	     -5.04061692	      1.43691661	     -4.60053317	     35.32050710	      6.87023648	     13.04053164	    -33.66284787	     -0.58752753	      0.98293008	     15.17112462	      2.66114846	     -2.48204578	     -2.77263129	      4.59474167	     -8.24636312	    -12.35486858	     -5.06479136	     66.43872110	     89.95437384	      0.00000000	      0.00000000	    -16.34295692	      6.03031030	     23.04691200	     28.90770135	     89.95437384	      0.00000000	      0.00000000
      0.13000000	     -4.23553912	      0.04108826	     -5.04985519	     -0.85637961	      0.86742606	     -1.42027603	     -7.23571217	     -2.58544102	     -5.33508752	    -36.75985397	     -0.64158048	     -9.90319239	     -0.77671412	     -3.56213603	     35.84735288	      5.76005088	     11.59953141	    -34.92712201	     -0.60959328	      0.70844785	     16.28074391	      3.39524646	     -1.62628803	     -3.36823242	      3.94650425	     -8.58289444	    -12.00603934	     -5.11769411	     65.55357402	     89.95437384	      0.00000000	      0.00000000	    -16.00808531	      6.16512226	     23.31625976	     28.49780813	     89.95437384	      0.00000000	      0.00000000
      0.14000000	     -3.93647874	      0.26058513	     -5.04051762	     -0.84143145	      0.86819095	     -1.42247674	     -6.33516415	     -3.23335997	     -5.52548433	    -39.41643512	     -0.68794657	    -14.42773190	     -1.39266331	     -2.77021539	     35.19183251	      5.17721251	     11.03704088	    -36.15670925	     -0.63105362	      1.54834263	     16.49144129	      3.54298311	     -1.73249945	     -3.77436773	      3.64244160	     -8.76175106	    -11.75647158	     -5.24085895	     64.43110798	     89.95437384	      0.00000000	      0.00000000	    -15.58066303	      6.36955318	     23.17581591	     28.47059221	     89.95437384	      0.00000000	      0.00000000
      0.15000000	     -3.71005676	      0.56629260	     -4.81315300	     -0.82643477	      0.86890311	     -1.42503884	     -5.35016788	     -3.81822998	     -5.49432388	    -42.09490261	     -0.73469465	    -18.08645237	     -2.46067090	     -2.01265931	     34.40046128	      4.26433868	     10.24906085	    -36.96741077	     -0.64520303	      2.51874476	     16.83965610	      3.81858350	     -1.75227795	     -4.23295181	      3.08422480	     -9.04262337	    -11.44275149	     -5.41399868	     63.39155177	     89.95437384	      0.00000000	      0.00000000	    -15.13951197	      6.58492321	     23.12780415	     28.45760172	     89.95437384	      0.00000000	      0.00000000
